<?xml version="1.0" ?>
<!-- Uploaded to: SVG Repo, www.svgrepo.com, Generator: SVG Repo Mixer Tools -->
<svg fill="#000000" width="800px" height="800px" viewBox="0 0 32 32" xmlns="http://www.w3.org/2000/svg">
<title/>
<g data-name="Layer 21" id="Layer_21">
<path d="M30.84,8.52A1,1,0,0,0,31,7.84l-.85-5A2.12,2.12,0,0,0,28,1H4a2.12,2.12,0,0,0-2.1,1.79L1,7.84a1,1,0,0,0,.15.68A2.31,2.31,0,0,0,1,9.35v19.3A2.35,2.35,0,0,0,3.35,31h25.3A2.35,2.35,0,0,0,31,28.65V9.35A2.31,2.31,0,0,0,30.84,8.52ZM4,3H28a.14.14,0,0,1,.13.12L28.82,7l-.17,0H3.35L3.18,7l.65-3.91A.14.14,0,0,1,4,3ZM29,28.65a.35.35,0,0,1-.35.35H3.35A.35.35,0,0,1,3,28.65V9.35A.35.35,0,0,1,3.35,9h25.3a.35.35,0,0,1,.35.35Z"/>
<path d="M18,18H15.33L17,12.27A1,1,0,1,0,15,11.73l-2,7a1,1,0,0,0,.16.87,1,1,0,0,0,.8.4h2.67L15,25.73A1,1,0,0,0,15.73,27,.84.84,0,0,0,16,27a1,1,0,0,0,1-.73l2-7a1,1,0,0,0-.16-.87A1,1,0,0,0,18,18Z"/>
</g>
</svg>