<?xml version="1.0" encoding="iso-8859-1"?>
<!-- Uploaded to: SVG Repo, www.svgrepo.com, Generator: SVG Repo Mixer Tools -->
<svg fill="#000000" height="800px" width="800px" version="1.1" id="Layer_1" xmlns="http://www.w3.org/2000/svg" xmlns:xlink="http://www.w3.org/1999/xlink" 
	 viewBox="0 0 512.004 512.004" xml:space="preserve">
<g>
	<g>
		<g>
			<path d="M508.031,158.269L401.364,8.936c-4.005-5.606-10.47-8.934-17.36-8.934h-256c-6.89,0-13.355,3.327-17.36,8.934
				L81.72,49.431L57.051,26.908c-3.931-3.589-9.061-5.579-14.384-5.579H21.333C9.551,21.329,0,30.88,0,42.662
				c0,11.782,9.551,21.333,21.333,21.333h13.059L56.741,84.4L3.978,158.269c-2.584,3.618-3.974,7.953-3.974,12.4v320
				c0,11.782,9.551,21.333,21.333,21.333h469.333c11.782,0,21.333-9.551,21.333-21.333v-320
				C512.004,166.222,510.615,161.887,508.031,158.269z M469.338,469.336H42.671v-291.83l96.312-134.837h234.043l96.312,134.837
				V469.336z"/>
			<path d="M320.004,234.669c0-11.782-9.551-21.333-21.333-21.333h-85.333c-11.782,0-21.333,9.551-21.333,21.333v85.333
				c0,11.782,9.551,21.333,21.333,21.333h85.333c11.782,0,21.333-9.551,21.333-21.333V234.669z M277.338,298.669h-42.667v-42.667
				h42.667V298.669z"/>
			<path d="M326.253,176.917c-8.331,8.331-8.331,21.839,0,30.17c8.331,8.331,21.839,8.331,30.17,0l42.667-42.667
				c8.331-8.331,8.331-21.839,0-30.17s-21.839-8.331-30.17,0L326.253,176.917z"/>
			<path d="M155.586,347.584l-42.667,42.667c-8.331,8.331-8.331,21.839,0,30.17c8.331,8.331,21.839,8.331,30.17,0l42.667-42.667
				c8.331-8.331,8.331-21.839,0-30.17C177.425,339.253,163.917,339.253,155.586,347.584z"/>
			<path d="M155.586,207.087c8.331,8.331,21.839,8.331,30.17,0c8.331-8.331,8.331-21.839,0-30.17l-42.667-42.667
				c-8.331-8.331-21.839-8.331-30.17,0s-8.331,21.839,0,30.17L155.586,207.087z"/>
			<path d="M356.423,347.584c-8.331-8.331-21.839-8.331-30.17,0c-8.331,8.331-8.331,21.839,0,30.17l42.667,42.667
				c8.331,8.331,21.839,8.331,30.17,0c8.331-8.331,8.331-21.839,0-30.17L356.423,347.584z"/>
		</g>
	</g>
</g>
</svg>